HIERARCHY
ROOT Hips
{
	OFFSET 0.000000 0.000000 0.000000
	CHANNELS 6 Xposition Yposition Zposition Zrotation Yrotation Xrotation 
	JOINT LowerBack
	{
		OFFSET 0.000000 0.000000 0.000000
		CHANNELS 3 Zrotation Yrotation Xrotation
		JOINT Spine
		{
			OFFSET 0.028270 2.035590 -0.193380
			CHANNELS 3 Zrotation Yrotation Xrotation
			JOINT Spine1
			{
				OFFSET 0.056720 2.048850 -0.042750
				CHANNELS 3 Zrotation Yrotation Xrotation
				JOINT Neck
				{
					OFFSET 0.000000 0.000000 0.000000
					CHANNELS 3 Zrotation Yrotation Xrotation
					JOINT Neck1
					{
						OFFSET -0.054170 1.746240 0.172020
						CHANNELS 3 Zrotation Yrotation Xrotation
						JOINT Head
						{
							OFFSET 0.104070 1.761360 -0.123970
							CHANNELS 3 Zrotation Yrotation Xrotation
							End Site
							{
								OFFSET 0.000000 0.000000 0.000000
							}
						}
					}
				}
				JOINT LeftShoulder
				{
					OFFSET 0.000000 0.000000 0.000000
					CHANNELS 3 Zrotation Yrotation Xrotation
					JOINT LeftArm
					{
						OFFSET 3.362410 1.200890 -0.311210
						CHANNELS 3 Zrotation Yrotation Xrotation
						JOINT LeftForeArm
						{
							OFFSET 4.983000 -0.000000 -0.000000
							CHANNELS 3 Zrotation Yrotation Xrotation
							JOINT LeftHand
							{
								OFFSET 3.483560 -0.000000 -0.000000
								CHANNELS 3 Zrotation Yrotation Xrotation
								JOINT LeftFingerBase
								{
									OFFSET 0.000000 0.000000 0.000000
									CHANNELS 3 Zrotation Yrotation Xrotation
									JOINT LeftHandIndex1
									{
										OFFSET 0.715260 -0.000000 -0.000000
										CHANNELS 3 Zrotation Yrotation Xrotation
										End Site
										{
											OFFSET 0.000000 0.000000 0.000000
										}
									}
								}
								JOINT LThumb
								{
									OFFSET 0.000000 0.000000 0.000000
									CHANNELS 3 Zrotation Yrotation Xrotation
									End Site
									{
										OFFSET 0.000000 0.000000 0.000000
									}
								}
							}
						}
					}
				}
				JOINT RightShoulder
				{
					OFFSET 0.000000 0.000000 0.000000
					CHANNELS 3 Zrotation Yrotation Xrotation
					JOINT RightArm
					{
						OFFSET -3.136600 1.374050 -0.404650
						CHANNELS 3 Zrotation Yrotation Xrotation
						JOINT RightForeArm
						{
							OFFSET -5.241900 -0.000000 -0.000000
							CHANNELS 3 Zrotation Yrotation Xrotation
							JOINT RightHand
							{
								OFFSET -3.444170 -0.000000 -0.000000
								CHANNELS 3 Zrotation Yrotation Xrotation
								JOINT RightFingerBase
								{
									OFFSET 0.000000 0.000000 0.000000
									CHANNELS 3 Zrotation Yrotation Xrotation
									JOINT RightHandIndex1
									{
										OFFSET -0.622530 -0.000000 -0.000000
										CHANNELS 3 Zrotation Yrotation Xrotation
										End Site
										{
											OFFSET 0.000000 0.000000 0.000000
										}
									}
								}
								JOINT RThumb
								{
									OFFSET 0.000000 0.000000 0.000000
									CHANNELS 3 Zrotation Yrotation Xrotation
									End Site
									{
										OFFSET 0.000000 0.000000 0.000000
									}
								}
							}
						}
					}
				}
			}
		}
	}
}
}
MOTION
Frames: 12
Frame Time: 0.008333
1.210366 17.574844 1.763081 8.112839 -52.548352 8.863469 0.564081 4.472258 -8.783097 0.170328 4.487685 -3.805043 0.389141 4.391407 1.505271 -10.699341 2.825222 -6.090389 -1.655550 -0.141271 0.448301 0.000000 0.000000 0.000000 1.478301 18.171168 -3.947922 -79.659028 -29.143187 29.772211 179.354570 -49.315535 179.686754 20.865252 -41.463104 -8.681758 -0.435803 2.353571 -0.000000 0.000000 0.000000 0.000000 0.000000 0.000000 0.000000 -16.538651 7.076432 4.606596 -0.873929 31.266328 -44.447292 1.166719 2.428685 -0.019469 3.595156 -16.731597 -0.526651 0.043039 0.116213 0.000000 0.000000 0.000000 0.000000 0.000000 0.000000 0.000000 
1.209430 17.575787 1.780381 7.752545 -52.116769 8.962786 0.402479 4.306175 -8.843788 0.148354 4.332979 -3.788446 0.371808 4.231654 1.667053 -10.065331 2.027832 -6.196623 -1.658666 -0.140227 0.418715 0.000000 0.000000 0.000000 2.138455 18.132060 -3.988135 -80.062975 -28.260947 29.597172 179.240751 -48.965474 179.683034 20.762875 -41.549497 -8.657746 -0.427267 2.363074 -0.000000 0.000000 0.000000 0.000000 0.000000 0.000000 0.000000 -16.021818 6.222636 4.540062 1.375856 32.027657 -42.723284 1.199268 4.655933 -0.015880 4.884056 -18.006004 -0.776627 0.020291 0.118031 -0.000000 0.000000 0.000000 0.000000 0.000000 0.000000 0.000000 
1.210734 17.575451 1.798219 7.379821 -51.697689 9.093233 0.290057 4.133052 -8.876656 0.131512 4.165657 -3.777915 0.323072 4.063041 1.779373 -9.414822 1.366081 -6.276308 -1.687522 -0.141366 0.396273 0.000000 0.000000 0.000000 2.739329 18.050079 -3.994319 -80.390735 -27.361970 29.357744 179.149640 -48.546736 179.679288 20.786874 -41.619971 -8.686229 -0.426033 2.377671 -0.000000 0.000000 0.000000 0.000000 0.000000 0.000000 0.000000 -15.433299 5.536478 4.403303 3.829751 32.440643 -41.131774 1.073081 7.646286 -0.012483 4.881968 -18.239295 -0.785920 0.016086 0.091693 -0.000000 0.000000 0.000000 0.000000 0.000000 0.000000 0.000000 
1.213928 17.573716 1.816190 6.999074 -51.313022 9.256376 0.221335 3.957583 -8.889256 0.117282 3.990725 -3.779468 0.238866 3.891130 1.825777 -8.731990 0.894588 -6.311020 -1.756168 -0.145949 0.385839 0.000000 0.000000 0.000000 3.297848 17.916059 -3.962513 -80.639725 -26.434448 29.045661 179.084222 -48.070238 179.675729 20.938210 -41.673753 -8.767695 -0.432442 2.397212 -0.000000 0.000000 0.000000 0.000000 0.000000 0.000000 0.000000 -14.687902 5.066248 4.189254 6.313559 32.467701 -39.504082 0.817428 11.249950 -0.009768 3.710769 -17.256853 -0.561017 0.024957 0.037704 0.000000 0.000000 0.000000 0.000000 0.000000 0.000000 0.000000 
1.218129 17.570378 1.834058 6.614796 -50.988629 9.460295 0.178973 3.783005 -8.903299 0.100402 3.812417 -3.798544 0.113723 3.719972 1.803709 -7.988705 0.603513 -6.293187 -1.873925 -0.154747 0.389280 0.000000 0.000000 0.000000 3.841479 17.744694 -3.894084 -80.818858 -25.486651 28.679734 179.044785 -47.561661 179.672511 21.226745 -41.702523 -8.904731 -0.447014 2.420588 -0.000000 0.000000 0.000000 0.000000 0.000000 0.000000 0.000000 -13.699746 4.786930 3.888160 8.633863 32.194450 -37.812072 0.469026 15.224500 -0.010184 1.499687 -14.898069 -0.190005 0.043920 -0.044115 0.000000 0.000000 0.000000 0.000000 0.000000 0.000000 0.000000 
1.222810 17.565295 1.851424 6.224905 -50.733218 9.702378 0.145984 3.605747 -8.924762 0.079409 3.628623 -3.836777 -0.043323 3.546185 1.713965 -7.169573 0.468474 -6.216721 -2.040814 -0.167825 0.408012 0.000000 0.000000 0.000000 4.406994 17.538409 -3.791986 -80.966736 -24.499496 28.267959 179.027853 -47.043292 179.669816 21.609877 -41.725702 -9.083045 -0.467614 2.446952 -0.000000 0.000000 0.000000 0.000000 0.000000 0.000000 0.000000 -12.439796 4.652778 3.499808 10.687551 31.723097 -36.103302 0.073373 19.391146 -0.017720 -1.579466 -11.243747 0.160134 0.070569 -0.149051 -0.000000 0.000000 0.000000 0.000000 0.000000 0.000000 0.000000 
1.227425 17.558347 1.868028 5.827578 -50.554579 9.982242 0.107905 3.421792 -8.963498 0.053510 3.436611 -3.892447 -0.221467 3.365203 1.573588 -6.273789 0.434640 -6.091197 -2.248092 -0.184384 0.439229 0.000000 0.000000 0.000000 5.014821 17.315506 -3.664630 -81.114683 -23.476056 27.827041 179.026690 -46.539651 179.667744 22.058391 -41.753368 -9.291853 -0.492405 2.474670 -0.000000 0.000000 0.000000 0.000000 0.000000 0.000000 0.000000 -10.930218 4.587695 3.040917 12.469896 31.195275 -34.524342 -0.315748 23.616056 -0.035085 -5.211993 -6.688008 0.298314 0.099197 -0.263295 -0.000000 0.000000 0.000000 0.000000 0.000000 0.000000 0.000000 
1.231463 17.549504 1.883613 5.424173 -50.452231 10.297224 0.055108 3.230516 -9.025104 0.022392 3.236879 -3.960309 -0.410951 3.175889 1.409213 -5.317229 0.432631 -5.939990 -2.482600 -0.203143 0.476531 0.000000 0.000000 0.000000 5.674466 17.086370 -3.526032 -81.289072 -22.430131 27.374181 179.030800 -46.072934 179.666269 22.536979 -41.795449 -9.517790 -0.518897 2.501768 -0.000000 0.000000 0.000000 0.000000 0.000000 0.000000 0.000000 -9.226523 4.515804 2.548966 14.052479 30.711978 -33.171079 -0.646282 27.861578 -0.060610 -8.957304 -1.882468 0.120534 0.121608 -0.366813 -0.000000 0.000000 0.000000 0.000000 0.000000 0.000000 0.000000 
1.234587 17.538856 1.897867 5.019070 -50.416935 10.640451 -0.020052 3.037216 -9.109088 -0.015610 3.035748 -4.033164 -0.609266 2.983800 1.248441 -4.320156 0.383851 -5.794595 -2.732576 -0.222885 0.511477 0.000000 0.000000 0.000000 6.390228 16.849985 -3.393315 -81.507799 -21.390787 26.932974 179.028612 -45.665098 179.665237 23.011879 -41.854080 -9.746000 -0.544542 2.526148 -0.000000 0.000000 0.000000 0.000000 0.000000 0.000000 0.000000 -7.379184 4.372309 2.067027 15.510852 30.309262 -32.017870 -0.885654 32.145552 -0.088917 -12.428109 2.518487 -0.325723 0.133153 -0.444378 -0.000000 0.000000 0.000000 0.000000 0.000000 0.000000 0.000000 
1.236651 17.526617 1.910853 4.612991 -50.433599 11.013250 -0.109663 2.849687 -9.214193 -0.056965 2.841093 -4.106802 -0.805738 2.796347 1.102548 -3.335277 0.241873 -5.676796 -2.978379 -0.242050 0.538906 0.000000 0.000000 0.000000 7.144639 16.585381 -3.275733 -81.775025 -20.365542 26.501410 179.009924 -45.328858 179.664440 23.443280 -41.949938 -9.963627 -0.566146 2.546532 -0.000000 0.000000 0.000000 0.000000 0.000000 0.000000 0.000000 -5.524549 4.139174 1.619150 17.034343 29.959266 -31.064498 -1.029390 36.504546 -0.114431 -15.340035 6.196521 -0.909680 0.133928 -0.494267 -0.000000 0.000000 0.000000 0.000000 0.000000 0.000000 0.000000 
1.237685 17.513094 1.922144 4.218059 -50.485268 11.396122 -0.224273 2.673532 -9.329396 -0.106271 2.659544 -4.175685 -1.010530 2.620797 0.982806 -2.357191 -0.037952 -5.605161 -3.219040 -0.260445 0.553749 0.000000 0.000000 0.000000 7.944184 16.294753 -3.183534 -82.093230 -19.403836 26.109158 178.973686 -45.084637 179.663755 23.811088 -42.059209 -10.155710 -0.582770 2.561704 -0.000000 0.000000 0.000000 0.000000 0.000000 0.000000 0.000000 -3.649920 3.788506 1.221270 18.589921 29.628976 -30.131677 -1.084121 40.944919 -0.134888 -17.702385 8.975216 -1.492945 0.130010 -0.521349 -0.000000 0.000000 0.000000 0.000000 0.000000 0.000000 0.000000 
1.237707 17.498656 1.932013 3.836850 -50.558392 11.793311 -0.348503 2.510704 -9.458665 -0.157727 2.492461 -4.241456 -1.212099 2.458442 0.880777 -1.433689 -0.432710 -5.576863 -3.437314 -0.276997 0.557650 0.000000 0.000000 0.000000 8.760122 15.963608 -3.113202 -82.447897 -18.498204 25.736601 178.919128 -44.929923 179.663046 24.097298 -42.195029 -10.317463 -0.593030 2.571804 -0.000000 0.000000 0.000000 0.000000 0.000000 0.000000 0.000000 -1.902944 3.358645 0.868123 20.367780 29.254622 -29.241562 -1.067467 45.479148 -0.149779 -19.501343 10.959121 -1.994516 0.124919 -0.534652 -0.000000 0.000000 0.000000 0.000000 0.000000 0.000000 0.000000 
